<svg width="187" height="72" viewBox="0 0 187 72" fill="none" xmlns="http://www.w3.org/2000/svg">
    <path
        d="M186.5 36C186.5 40.7814 183.985 45.3925 179.316 49.6431C174.646 53.8938 167.861 57.7448 159.435 60.9892C142.585 67.4768 119.274 71.5 93.5 71.5C67.7261 71.5 44.4147 67.4768 27.5652 60.9892C19.1387 57.7448 12.3539 53.8938 7.68428 49.6431C3.01486 45.3925 0.5 40.7814 0.5 36C0.5 31.2186 3.01486 26.6075 7.68428 22.3569C12.3539 18.1062 19.1387 14.2552 27.5652 11.0108C44.4147 4.52323 67.7261 0.5 93.5 0.5C119.274 0.5 142.585 4.52323 159.435 11.0108C167.861 14.2552 174.646 18.1062 179.316 22.3569C183.985 26.6075 186.5 31.2186 186.5 36Z"
        stroke="white" />
</svg>